<svg width="560" height="214" viewBox="0 0 560 214" xmlns="http://www.w3.org/2000/svg">
  <rect width="560" height="214" rx="14" fill="#0d1117"/>
  <rect x="0.5" y="0.5" width="559" height="213" rx="13.5" fill="none" stroke="#21262d" stroke-width="1"/>

  <!-- Header -->
  <text x="28" y="33" fill="#58a6ff" font-size="10" font-weight="700" letter-spacing="2.2" font-family="'Segoe UI',system-ui,sans-serif">LANGUAGES  ·  nolawimelese/the-lab</text>
  <line x1="28" y1="44" x2="532" y2="44" stroke="#21262d" stroke-width="1"/>

  <!-- Bar bg -->
  <rect x="28" y="60" width="504" height="12" rx="6" fill="#161b22"/>
  <rect x="28" y="60" width="305.67453263867606" height="12" rx="6" fill="#3572A5"/><rect x="327.67453263867606" y="60" width="6" height="12" fill="#3572A5"/><rect x="335.67453263867606" y="60" width="153.47054857493103" height="12" rx="0" fill="#3178c6"/><rect x="491.1450812136071" y="60" width="26.59785473490653" height="12" rx="0" fill="#e34c26"/><rect x="519.7429359485136" y="60" width="18.257064051486363" height="12" rx="6" fill="#f1e05a"/><rect x="519.7429359485136" y="60" width="6" height="12" fill="#f1e05a"/>

  <!-- Entries -->
  
    <circle cx="35.0" cy="112" r="5" fill="#3572A5"/>
    <text x="48.0" y="116" fill="#e6edf3" font-size="12.5" font-weight="500" font-family="'Segoe UI',system-ui,sans-serif">Python</text>
    <text x="48.0" y="132" fill="#8b949e" font-size="10.5" font-family="'Segoe UI',system-ui,sans-serif">60.6%  ·  9.9 KB · 6 files</text>
    <circle cx="287.0" cy="112" r="5" fill="#3178c6"/>
    <text x="300.0" y="116" fill="#e6edf3" font-size="12.5" font-weight="500" font-family="'Segoe UI',system-ui,sans-serif">TypeScript</text>
    <text x="300.0" y="132" fill="#8b949e" font-size="10.5" font-family="'Segoe UI',system-ui,sans-serif">30.5%  ·  5.0 KB · 7 files</text>
    <circle cx="35.0" cy="158" r="5" fill="#e34c26"/>
    <text x="48.0" y="162" fill="#e6edf3" font-size="12.5" font-weight="500" font-family="'Segoe UI',system-ui,sans-serif">HTML</text>
    <text x="48.0" y="178" fill="#8b949e" font-size="10.5" font-family="'Segoe UI',system-ui,sans-serif">5.3%  ·  861 B · 1 file</text>
    <circle cx="287.0" cy="158" r="5" fill="#f1e05a"/>
    <text x="300.0" y="162" fill="#e6edf3" font-size="12.5" font-weight="500" font-family="'Segoe UI',system-ui,sans-serif">JavaScript</text>
    <text x="300.0" y="178" fill="#8b949e" font-size="10.5" font-family="'Segoe UI',system-ui,sans-serif">3.6%  ·  591 B · 1 file</text>
</svg>